<svg height="512pt" viewBox="0 0 512 512" width="512pt" xmlns="http://www.w3.org/2000/svg" fill="#FFF"><path d="m435.027344 211 60-90h-43.84375c-7.429688-67.960938-64.773438-121-134.183594-121h-31v30c41.195312 0 76 34.804688 76 76v15h-43.027344l60 90h-107.972656v301h241v-232.214844l-68.785156-68.785156zm-61.371094-164.210938c29.0625 18.875 48.34375 51.808594 48.34375 89.210938v15h16.972656l-31.972656 47.957031-31.972656-47.957031h16.972656v-45c0-21.320312-6.414062-41.773438-18.34375-59.210938zm78.34375 215.425782 8.785156 8.785156h-8.785156zm-151 219.785156v-241h121v60h60v181zm0 0"/><path d="m241 68.785156-68.785156-68.785156h-172.214844v300.988281h77.964844c-19.414063 28.988281-46.632813 68.40625-61.527344 90.011719h45.378906c7.429688 67.960938 64.773438 121 134.183594 121h30v-30c-41.355469 0-75-34.09375-75-76v-15h43.027344l-60-90h106.972656zm-102.359375 395.964844c-28.667969-18.945312-47.640625-51.652344-47.640625-88.75v-15h-17.507812c10.035156-14.660156 22.730468-33.289062 31.917968-47.074219l.589844-.882812 31.972656 47.957031h-16.972656v45c0 21.714844 6.5 41.921875 17.640625 58.75zm42.359375-413.535156 8.785156 8.785156h-8.785156zm-151 219.785156v-241h121v60h60v181zm0 0"/></svg>
